<svg width="26" height="27" viewBox="0 0 26 27" fill="none" xmlns="http://www.w3.org/2000/svg">
<rect y="0.351562" width="26" height="26" rx="13" fill="var(--blue)"/>
<path d="M5.6787 14.6757H6.5887C8.1487 14.6757 9.0262 13.8524 9.0262 12.3899C9.0262 11.7291 8.75536 11.0899 8.28953 10.6782C7.83453 10.2774 7.32536 10.1257 6.38286 10.1257H4.27036V17.3516H5.6787V14.6757ZM5.6787 13.4516V11.3499H6.1662C7.13036 11.3499 7.57453 11.6749 7.57453 12.3899C7.57453 13.1049 7.1412 13.4516 6.25286 13.4516H5.6787ZM11.4762 12.9207V10.1257H10.0679V17.3516H11.4762V14.1449H14.5312V17.3516H15.9396V10.1257H14.5312V12.9207H11.4762ZM19.0088 14.6757H19.9188C21.4788 14.6757 22.3563 13.8524 22.3563 12.3899C22.3563 11.7291 22.0854 11.0899 21.6196 10.6782C21.1646 10.2774 20.6554 10.1257 19.7129 10.1257H17.6004V17.3516H19.0088V14.6757ZM19.0088 13.4516V11.3499H19.4963C20.4604 11.3499 20.9046 11.6749 20.9046 12.3899C20.9046 13.1049 20.4713 13.4516 19.5829 13.4516H19.0088Z" fill="var(--gray-900)"/>
</svg>
