<svg width="29" height="28" viewBox="0 0 29 28" fill="none" xmlns="http://www.w3.org/2000/svg">
<path fill-rule="evenodd" clip-rule="evenodd" d="M4.44543 21C4.44543 20.7679 4.53762 20.5454 4.70172 20.3813C4.86581 20.2172 5.08837 20.125 5.32043 20.125H22.8204C23.0525 20.125 23.2751 20.2172 23.4392 20.3813C23.6032 20.5454 23.6954 20.7679 23.6954 21C23.6954 21.2321 23.6032 21.4546 23.4392 21.6187C23.2751 21.7828 23.0525 21.875 22.8204 21.875H5.32043C5.08837 21.875 4.86581 21.7828 4.70172 21.6187C4.53762 21.4546 4.44543 21.2321 4.44543 21ZM4.44543 14C4.44543 13.7679 4.53762 13.5454 4.70172 13.3813C4.86581 13.2172 5.08837 13.125 5.32043 13.125H22.8204C23.0525 13.125 23.2751 13.2172 23.4392 13.3813C23.6032 13.5454 23.6954 13.7679 23.6954 14C23.6954 14.2321 23.6032 14.4546 23.4392 14.6187C23.2751 14.7828 23.0525 14.875 22.8204 14.875H5.32043C5.08837 14.875 4.86581 14.7828 4.70172 14.6187C4.53762 14.4546 4.44543 14.2321 4.44543 14ZM4.44543 7C4.44543 6.76794 4.53762 6.54538 4.70172 6.38128C4.86581 6.21719 5.08837 6.125 5.32043 6.125H22.8204C23.0525 6.125 23.2751 6.21719 23.4392 6.38128C23.6032 6.54538 23.6954 6.76794 23.6954 7C23.6954 7.23206 23.6032 7.45462 23.4392 7.61872C23.2751 7.78281 23.0525 7.875 22.8204 7.875H5.32043C5.08837 7.875 4.86581 7.78281 4.70172 7.61872C4.53762 7.45462 4.44543 7.23206 4.44543 7Z" fill="currentColor"/>
</svg>
