<svg width="24" height="24" viewBox="0 0 24 24" fill="none" xmlns="http://www.w3.org/2000/svg">
<rect width="24" height="24" rx="12" fill="var(--red)"/>
<path fill-rule="evenodd" clip-rule="evenodd" d="M13.9145 6.03517C14.0208 6.16713 14.075 6.3452 14.1834 6.70136L16.5519 14.4817C15.6762 14.0275 14.7242 13.6998 13.7203 13.5231L12.1782 8.31185C12.1529 8.22658 12.0746 8.16809 11.9857 8.16809C11.8966 8.16809 11.8181 8.22689 11.7931 8.31245L10.2696 13.5204C9.26102 13.6964 8.30472 14.0246 7.42529 14.4805L9.80536 6.69956H9.80537C9.91412 6.34402 9.96849 6.16625 10.0748 6.03453C10.1686 5.91824 10.2907 5.82792 10.4294 5.77219C10.5864 5.70906 10.7723 5.70906 11.1441 5.70906H12.8441C13.2164 5.70906 13.4025 5.70906 13.5597 5.77232C13.6985 5.82817 13.8206 5.91867 13.9145 6.03517Z" fill="var(--gray-900)"/>
<path fill-rule="evenodd" clip-rule="evenodd" d="M14.1979 14.852C13.8075 15.1859 13.0282 15.4136 12.1305 15.4136C11.0287 15.4136 10.1053 15.0706 9.86023 14.6093C9.77263 14.8736 9.75299 15.1762 9.75299 15.3695C9.75299 15.3695 9.69527 16.3186 10.3554 16.9787C10.3554 16.636 10.6333 16.3582 10.9761 16.3582C11.5636 16.3582 11.5629 16.8707 11.5624 17.2865C11.5624 17.299 11.5623 17.3114 11.5623 17.3236C11.5623 17.9548 11.9481 18.4959 12.4967 18.724C12.4148 18.5555 12.3688 18.3662 12.3688 18.1662C12.3688 17.5642 12.7223 17.34 13.133 17.0795C13.4598 16.8722 13.8229 16.642 14.0732 16.18C14.2038 15.9389 14.2779 15.6629 14.2779 15.3695C14.2779 15.1891 14.2499 15.0152 14.1979 14.852Z" fill="var(--gray-900)"/>
</svg>
