<svg width="5" height="17" viewBox="0 0 5 17" fill="none" xmlns="http://www.w3.org/2000/svg">
<path d="M4.62762 5.9521L2.87762 14.1858C2.75512 14.7808 2.92837 15.1186 3.40962 15.1186C3.74912 15.1186 4.26187 14.9961 4.61012 14.6881L4.45612 15.4161C3.95387 16.0216 2.84612 16.4626 1.89237 16.4626C0.662119 16.4626 0.13887 15.7241 0.47837 14.1543L1.76987 8.08535C1.88187 7.5726 1.78037 7.3871 1.26762 7.26285L0.47837 7.1211L0.621869 6.45435L4.62937 5.9521H4.62762ZM3.00012 4.0481C2.53599 4.0481 2.09087 3.86372 1.76268 3.53553C1.43449 3.20734 1.25012 2.76222 1.25012 2.2981C1.25012 1.83397 1.43449 1.38885 1.76268 1.06066C2.09087 0.73247 2.53599 0.548096 3.00012 0.548096C3.46425 0.548096 3.90937 0.73247 4.23756 1.06066C4.56574 1.38885 4.75012 1.83397 4.75012 2.2981C4.75012 2.76222 4.56574 3.20734 4.23756 3.53553C3.90937 3.86372 3.46425 4.0481 3.00012 4.0481Z" fill="currentColor"/>
</svg>
