<svg width="26" height="27" viewBox="0 0 26 27" fill="none" xmlns="http://www.w3.org/2000/svg">
<rect y="0.351562" width="26" height="26" rx="13" fill="var(--blue)"/>
<path d="M10.0217 10.4095C9.40436 10.0955 8.89535 9.9655 8.28887 9.9655C6.15536 9.9655 4.44422 11.6442 4.44422 13.7452C4.44422 15.8679 6.11204 17.514 8.25638 17.514C8.86286 17.514 9.3827 17.3949 10.0217 17.0916V15.4347C9.45851 15.9978 8.96033 16.2252 8.32136 16.2252C6.90263 16.2252 5.89544 15.1964 5.89544 13.7343C5.89544 12.3481 6.93512 11.2543 8.25638 11.2543C8.92784 11.2543 9.43685 11.4925 10.0217 12.0665V10.4095ZM15.5944 10.8102C14.9879 10.2796 14.2623 10.0088 13.4717 10.0088C12.1938 10.0088 11.2191 10.8969 11.2191 12.0774C11.2191 13.0737 11.6739 13.5827 12.9952 14.0592C13.5475 14.2542 13.8291 14.3841 13.9699 14.4708C14.2515 14.6549 14.3922 14.9148 14.3922 15.2181C14.3922 15.8029 13.9266 16.2361 13.2984 16.2361C12.627 16.2361 12.0855 15.9003 11.7606 15.2722L10.8508 16.1494C11.5006 17.1025 12.2804 17.5248 13.3526 17.5248C14.8146 17.5248 15.8435 16.5501 15.8435 15.1531C15.8435 14.0051 15.3669 13.4853 13.7641 12.9004C12.9194 12.5864 12.6703 12.3806 12.6703 11.9907C12.6703 11.5359 13.1143 11.1893 13.7208 11.1893C14.1432 11.1893 14.4897 11.3626 14.8579 11.7741L15.5944 10.8102ZM21.3584 10.8102C20.7519 10.2796 20.0263 10.0088 19.2357 10.0088C17.9578 10.0088 16.9831 10.8969 16.9831 12.0774C16.9831 13.0737 17.4379 13.5827 18.7592 14.0592C19.3115 14.2542 19.5931 14.3841 19.7339 14.4708C20.0155 14.6549 20.1563 14.9148 20.1563 15.2181C20.1563 15.8029 19.6906 16.2361 19.0624 16.2361C18.391 16.2361 17.8495 15.9003 17.5246 15.2722L16.6149 16.1494C17.2647 17.1025 18.0444 17.5248 19.1166 17.5248C20.5786 17.5248 21.6075 16.5501 21.6075 15.1531C21.6075 14.0051 21.131 13.4853 19.5281 12.9004C18.6834 12.5864 18.4343 12.3806 18.4343 11.9907C18.4343 11.5359 18.8783 11.1893 19.4848 11.1893C19.9072 11.1893 20.2537 11.3626 20.622 11.7741L21.3584 10.8102Z" fill="var(--gray-900)"/>
</svg>
