<svg width="21" height="20" viewBox="0 0 21 20" fill="none" xmlns="http://www.w3.org/2000/svg">
<path d="M14.8388 6.94118C14.7865 6.94118 14.7865 6.88889 14.7865 6.88889L15.2048 4.43137L17.0872 6.31373L15.1002 7.15033C15.048 7.09804 14.9434 6.99346 14.8388 6.94118ZM17.5578 6.78431L19.597 8.82353C20.0153 9.24183 20.2244 9.45098 20.329 9.71242C20.329 9.76471 20.329 9.76471 20.3813 9.81699L15.5185 7.77778C15.5185 7.77778 15.4663 7.77778 15.4663 7.72549C15.4663 7.72549 15.4663 7.6732 15.5185 7.6732L17.5578 6.78431ZM20.2767 10.4967C20.1721 10.7059 19.963 10.915 19.597 11.2288L17.2963 13.5294L14.3159 12.902C14.3159 12.902 14.2636 12.902 14.2636 12.8497C14.2114 12.5882 14.1068 12.3791 13.8976 12.2222V12.1699L14.4728 8.77124C14.4728 8.77124 14.4728 8.71895 14.5251 8.71895C14.7865 8.66667 14.9957 8.56209 15.1525 8.35294H15.2048L20.2767 10.4967ZM16.7735 14.0523L13.0087 17.817L13.6362 13.8431C13.6362 13.8431 13.6362 13.8431 13.6885 13.8431C13.8453 13.7908 13.9499 13.6863 14.0545 13.5817L14.1068 13.5294L16.7735 14.0523ZM12.2244 18.6013L11.8061 19.0196L7.10025 12.2745C7.10025 12.2745 7.10025 12.2745 7.10025 12.2222L7.15254 12.1699C7.15254 12.1699 7.15254 12.1699 7.20482 12.1176C7.20482 12.1176 7.20482 12.1176 7.25711 12.1176L12.4336 13.1634H12.4859C12.5382 13.4248 12.7473 13.6863 13.0087 13.7909C13.0087 13.7909 13.0087 13.7908 13.0087 13.8431C12.9565 14.2614 12.3813 17.6601 12.2244 18.6013ZM11.3355 19.4379C11.0218 19.7516 10.865 19.9085 10.6558 19.9608C10.4467 20.0131 10.2375 20.0131 10.0284 19.9608C9.76692 19.9085 9.55777 19.6471 9.13947 19.2288L4.43358 14.5229L5.6362 12.6405H5.68848C5.79306 12.6928 5.94992 12.6928 6.0545 12.6928C6.21136 12.6928 6.36822 12.6405 6.52509 12.5882H6.57737L11.3355 19.4379ZM4.01528 14.1569L2.91724 13.0588L5.06103 12.1699C5.06103 12.1699 5.11332 12.1699 5.11332 12.2222C5.11332 12.2745 5.16561 12.2745 5.16561 12.3268C5.16561 12.3268 5.16561 12.3268 5.16561 12.3791L4.01528 14.1569ZM2.44665 12.5882L1.08718 11.2288C0.878027 11.0196 0.668877 10.8105 0.564302 10.7059L4.69502 11.5425C4.69502 11.5425 4.74731 11.5425 4.74731 11.5948L4.69502 11.6471L2.44665 12.5882ZM0.302864 9.97386C0.302864 9.86928 0.302864 9.81699 0.355152 9.71242C0.407439 9.45098 0.61659 9.24183 1.08718 8.82353L2.81267 7.09804C3.12639 7.51634 5.00875 10.2876 5.2179 10.6013C5.2179 10.6013 5.27018 10.6536 5.2179 10.6536C5.16561 10.7582 5.06103 10.8105 5.00875 10.915C5.00875 10.915 5.00875 10.915 5.00875 10.9673L0.302864 9.97386ZM3.28326 6.62745L5.6362 4.27451C5.84535 4.37909 6.68195 4.69281 7.36169 5.00654C7.88456 5.21569 8.40744 5.42484 8.5643 5.52941C8.5643 5.52941 8.61659 5.52941 8.61659 5.5817C8.61659 5.5817 8.61659 5.5817 8.61659 5.63399C8.61659 5.68628 8.61659 5.79085 8.61659 5.84314C8.61659 6.10458 8.72116 6.36601 8.93032 6.57516V6.62745L6.52509 10.3399H6.4728C6.36822 10.3399 6.26365 10.2876 6.21136 10.2876C6.10679 10.2876 6.0545 10.2876 5.94992 10.3399C5.94992 10.3399 5.94992 10.3399 5.89763 10.3399C5.89763 10.3399 5.89763 10.3399 5.89763 10.2876L3.28326 6.62745ZM6.10678 3.80392L9.13947 0.771242C9.55777 0.352941 9.76692 0.143791 10.0284 0.0392157C10.2375 -0.0130719 10.4467 -0.0130719 10.6558 0.0392157C10.9172 0.0915033 11.1264 0.300654 11.5447 0.771242L12.2244 1.45098L10.0806 4.79739H10.0284C9.92378 4.7451 9.8192 4.7451 9.71463 4.7451C9.45319 4.7451 9.24404 4.84967 9.03489 5.00654H8.9826C8.61659 4.84967 6.42051 3.9085 6.10678 3.80392ZM12.6427 1.86928L14.6297 3.85621L14.1591 6.8366C14.0545 6.88889 13.9499 6.94118 13.8976 6.99346L10.865 5.68628C10.865 5.68628 10.8127 5.68628 10.8127 5.63399C10.8127 5.47712 10.7604 5.32026 10.6558 5.1634C10.6558 5.1634 10.6035 5.11111 10.6558 5.11111L12.6427 1.86928ZM10.6035 6.36601L13.4793 7.56863C13.4793 7.56863 13.5316 7.56863 13.5316 7.62092C13.5316 7.62092 13.5316 7.62092 13.5316 7.6732C13.5316 7.72549 13.5316 7.77778 13.5316 7.83007V7.93464C13.5316 7.93464 13.5316 7.98693 13.4793 7.98693C13.0087 8.19608 7.15254 10.7059 7.15254 10.7059C7.15254 10.7059 7.15254 10.7059 7.10025 10.7059V10.6536L9.45319 7.04575L9.50548 6.99346C9.55777 6.99346 9.61005 6.99346 9.66234 6.99346C10.0284 6.99346 10.3421 6.8366 10.5512 6.52288C10.5512 6.36601 10.5512 6.36601 10.6035 6.36601C10.5512 6.36601 10.6035 6.36601 10.6035 6.36601ZM7.3094 11.1765L13.7408 8.45752C13.7931 8.5098 13.7931 8.5098 13.8453 8.56209C13.8453 8.56209 13.8976 8.56209 13.8976 8.61438L13.3225 12.0131C13.3225 12.0654 13.3225 12.0654 13.2702 12.0654C12.9565 12.0654 12.695 12.2745 12.5382 12.4837C12.5382 12.4837 12.5382 12.4837 12.4859 12.5359C12.4859 12.5359 12.4859 12.5359 12.4336 12.5359L7.3094 11.4902C7.41397 11.4379 7.3094 11.1765 7.3094 11.1765Z" fill="#19C1B1"/>
<path d="M14.8388 6.94118C14.7865 6.94118 14.7865 6.88889 14.7865 6.88889L15.2048 4.43137L17.0872 6.31373L15.1002 7.15033C15.048 7.09804 14.9434 6.99346 14.8388 6.94118ZM17.5578 6.78431L19.597 8.82353C20.0153 9.24183 20.2244 9.45098 20.329 9.71242C20.329 9.76471 20.329 9.76471 20.3813 9.81699L15.5185 7.77778C15.5185 7.77778 15.4663 7.77778 15.4663 7.72549C15.4663 7.72549 15.4663 7.6732 15.5185 7.6732L17.5578 6.78431ZM20.2767 10.4967C20.1721 10.7059 19.963 10.915 19.597 11.2288L17.2963 13.5294L14.3159 12.902C14.3159 12.902 14.2636 12.902 14.2636 12.8497C14.2114 12.5882 14.1068 12.3791 13.8976 12.2222V12.1699L14.4728 8.77124C14.4728 8.77124 14.4728 8.71895 14.5251 8.71895C14.7865 8.66667 14.9957 8.56209 15.1525 8.35294H15.2048L20.2767 10.4967ZM16.7735 14.0523L13.0087 17.817L13.6362 13.8431C13.6362 13.8431 13.6362 13.8431 13.6885 13.8431C13.8453 13.7908 13.9499 13.6863 14.0545 13.5817L14.1068 13.5294L16.7735 14.0523ZM12.2244 18.6013L11.8061 19.0196L7.10025 12.2745C7.10025 12.2745 7.10025 12.2745 7.10025 12.2222L7.15254 12.1699C7.15254 12.1699 7.15254 12.1699 7.20482 12.1176C7.20482 12.1176 7.20482 12.1176 7.25711 12.1176L12.4336 13.1634H12.4859C12.5382 13.4248 12.7473 13.6863 13.0087 13.7909C13.0087 13.7909 13.0087 13.7908 13.0087 13.8431C12.9565 14.2614 12.3813 17.6601 12.2244 18.6013ZM11.3355 19.4379C11.0218 19.7516 10.865 19.9085 10.6558 19.9608C10.4467 20.0131 10.2375 20.0131 10.0284 19.9608C9.76692 19.9085 9.55777 19.6471 9.13947 19.2288L4.43358 14.5229L5.6362 12.6405H5.68848C5.79306 12.6928 5.94992 12.6928 6.0545 12.6928C6.21136 12.6928 6.36822 12.6405 6.52509 12.5882H6.57737L11.3355 19.4379ZM4.01528 14.1569L2.91724 13.0588L5.06103 12.1699C5.06103 12.1699 5.11332 12.1699 5.11332 12.2222C5.11332 12.2745 5.16561 12.2745 5.16561 12.3268C5.16561 12.3268 5.16561 12.3268 5.16561 12.3791L4.01528 14.1569ZM2.44665 12.5882L1.08718 11.2288C0.878027 11.0196 0.668877 10.8105 0.564302 10.7059L4.69502 11.5425C4.69502 11.5425 4.74731 11.5425 4.74731 11.5948L4.69502 11.6471L2.44665 12.5882ZM0.302864 9.97386C0.302864 9.86928 0.302864 9.81699 0.355152 9.71242C0.407439 9.45098 0.61659 9.24183 1.08718 8.82353L2.81267 7.09804C3.12639 7.51634 5.00875 10.2876 5.2179 10.6013C5.2179 10.6013 5.27018 10.6536 5.2179 10.6536C5.16561 10.7582 5.06103 10.8105 5.00875 10.915C5.00875 10.915 5.00875 10.915 5.00875 10.9673L0.302864 9.97386ZM3.28326 6.62745L5.6362 4.27451C5.84535 4.37909 6.68195 4.69281 7.36169 5.00654C7.88456 5.21569 8.40744 5.42484 8.5643 5.52941C8.5643 5.52941 8.61659 5.52941 8.61659 5.5817C8.61659 5.5817 8.61659 5.5817 8.61659 5.63399C8.61659 5.68628 8.61659 5.79085 8.61659 5.84314C8.61659 6.10458 8.72116 6.36601 8.93032 6.57516V6.62745L6.52509 10.3399H6.4728C6.36822 10.3399 6.26365 10.2876 6.21136 10.2876C6.10679 10.2876 6.0545 10.2876 5.94992 10.3399C5.94992 10.3399 5.94992 10.3399 5.89763 10.3399C5.89763 10.3399 5.89763 10.3399 5.89763 10.2876L3.28326 6.62745ZM6.10678 3.80392L9.13947 0.771242C9.55777 0.352941 9.76692 0.143791 10.0284 0.0392157C10.2375 -0.0130719 10.4467 -0.0130719 10.6558 0.0392157C10.9172 0.0915033 11.1264 0.300654 11.5447 0.771242L12.2244 1.45098L10.0806 4.79739H10.0284C9.92378 4.7451 9.8192 4.7451 9.71463 4.7451C9.45319 4.7451 9.24404 4.84967 9.03489 5.00654H8.9826C8.61659 4.84967 6.42051 3.9085 6.10678 3.80392ZM12.6427 1.86928L14.6297 3.85621L14.1591 6.8366C14.0545 6.88889 13.9499 6.94118 13.8976 6.99346L10.865 5.68628C10.865 5.68628 10.8127 5.68628 10.8127 5.63399C10.8127 5.47712 10.7604 5.32026 10.6558 5.1634C10.6558 5.1634 10.6035 5.11111 10.6558 5.11111L12.6427 1.86928ZM10.6035 6.36601L13.4793 7.56863C13.4793 7.56863 13.5316 7.56863 13.5316 7.62092C13.5316 7.62092 13.5316 7.62092 13.5316 7.6732C13.5316 7.72549 13.5316 7.77778 13.5316 7.83007V7.93464C13.5316 7.93464 13.5316 7.98693 13.4793 7.98693C13.0087 8.19608 7.15254 10.7059 7.15254 10.7059C7.15254 10.7059 7.15254 10.7059 7.10025 10.7059V10.6536L9.45319 7.04575L9.50548 6.99346C9.55777 6.99346 9.61005 6.99346 9.66234 6.99346C10.0284 6.99346 10.3421 6.8366 10.5512 6.52288C10.5512 6.36601 10.5512 6.36601 10.6035 6.36601C10.5512 6.36601 10.6035 6.36601 10.6035 6.36601ZM7.3094 11.1765L13.7408 8.45752C13.7931 8.5098 13.7931 8.5098 13.8453 8.56209C13.8453 8.56209 13.8976 8.56209 13.8976 8.61438L13.3225 12.0131C13.3225 12.0654 13.3225 12.0654 13.2702 12.0654C12.9565 12.0654 12.695 12.2745 12.5382 12.4837C12.5382 12.4837 12.5382 12.4837 12.4859 12.5359C12.4859 12.5359 12.4859 12.5359 12.4336 12.5359L7.3094 11.4902C7.41397 11.4379 7.3094 11.1765 7.3094 11.1765Z" fill="url(#paint0_radial_53_300)" fill-opacity="0.2"/>
<defs>
<radialGradient id="paint0_radial_53_300" cx="0" cy="0" r="1" gradientUnits="userSpaceOnUse" gradientTransform="translate(6 11.5) rotate(-5.52754) scale(15.5724 15.6335)">
<stop stop-color="#52E5DB"/>
<stop offset="1" stop-color="#059DAB"/>
</radialGradient>
</defs>
</svg>
