<svg width="16" height="16" viewBox="0 0 16 16" fill="none" xmlns="http://www.w3.org/2000/svg">
<path d="M0.682557 1.5675C0.624447 1.50939 0.578352 1.4404 0.546903 1.36448C0.515454 1.28855 0.499268 1.20718 0.499268 1.125C0.499268 1.04282 0.515454 0.961441 0.546903 0.885517C0.578352 0.809592 0.624447 0.740606 0.682557 0.682496C0.740667 0.624386 0.809654 0.578291 0.885578 0.546842C0.961502 0.515393 1.04288 0.499207 1.12506 0.499207C1.20724 0.499207 1.28861 0.515393 1.36454 0.546842C1.44046 0.578291 1.50945 0.624386 1.56756 0.682496L8.00006 7.11625L14.4326 0.682496C14.4907 0.624386 14.5597 0.578291 14.6356 0.546842C14.7115 0.515393 14.7929 0.499207 14.8751 0.499207C14.9572 0.499207 15.0386 0.515393 15.1145 0.546842C15.1905 0.578291 15.2594 0.624386 15.3176 0.682496C15.3757 0.740606 15.4218 0.809592 15.4532 0.885517C15.4847 0.961441 15.5008 1.04282 15.5008 1.125C15.5008 1.20718 15.4847 1.28855 15.4532 1.36448C15.4218 1.4404 15.3757 1.50939 15.3176 1.5675L8.88381 8L15.3176 14.4325C15.3757 14.4906 15.4218 14.5596 15.4532 14.6355C15.4847 14.7114 15.5008 14.7928 15.5008 14.875C15.5008 14.9572 15.4847 15.0386 15.4532 15.1145C15.4218 15.1904 15.3757 15.2594 15.3176 15.3175C15.2594 15.3756 15.1905 15.4217 15.1145 15.4532C15.0386 15.4846 14.9572 15.5008 14.8751 15.5008C14.7929 15.5008 14.7115 15.4846 14.6356 15.4532C14.5597 15.4217 14.4907 15.3756 14.4326 15.3175L8.00006 8.88375L1.56756 15.3175C1.50945 15.3756 1.44046 15.4217 1.36454 15.4532C1.28861 15.4846 1.20724 15.5008 1.12506 15.5008C1.04288 15.5008 0.961502 15.4846 0.885578 15.4532C0.809654 15.4217 0.740667 15.3756 0.682557 15.3175C0.624447 15.2594 0.578352 15.1904 0.546903 15.1145C0.515454 15.0386 0.499268 14.9572 0.499268 14.875C0.499268 14.7928 0.515454 14.7114 0.546903 14.6355C0.578352 14.5596 0.624447 14.4906 0.682557 14.4325L7.11631 8L0.682557 1.5675Z" fill="currentColor" stroke="currentColor"/>
</svg>