<svg width="16" height="16" viewBox="0 0 16 16" fill="none" xmlns="http://www.w3.org/2000/svg">
<path fill-rule="evenodd" clip-rule="evenodd" d="M10.3151 0.634545C10.4429 0.791784 10.508 1.00397 10.6384 1.42835L13.4854 10.699C12.4328 10.1578 11.2885 9.76737 10.0816 9.55676L8.22792 3.34733C8.19759 3.24573 8.10345 3.17603 7.99656 3.17603C7.8894 3.17603 7.79508 3.24609 7.76499 3.34805L5.93374 9.55362C4.72131 9.7633 3.57177 10.1544 2.51465 10.6976L5.37565 1.4262C5.50638 1.00256 5.57173 0.790741 5.69953 0.633781C5.81235 0.495216 5.95909 0.387602 6.12576 0.321193C6.31455 0.245972 6.53802 0.245972 6.98495 0.245972H9.02842C9.47592 0.245972 9.69968 0.245972 9.88865 0.321351C10.0555 0.387896 10.2023 0.495727 10.3151 0.634545Z" fill="currentColor"/>
<path fill-rule="evenodd" clip-rule="evenodd" d="M10.6557 11.1402C10.1863 11.538 9.24956 11.8093 8.1705 11.8093C6.8461 11.8093 5.73604 11.4006 5.4415 10.851C5.3362 11.166 5.31257 11.5265 5.31257 11.7568C5.31257 11.7568 5.24319 12.8877 6.03672 13.6743C6.03672 13.2659 6.37075 12.9348 6.78278 12.9348C7.48902 12.9348 7.48823 13.5456 7.48758 14.0411C7.48756 14.0559 7.48754 14.0706 7.48754 14.0852C7.48754 14.8373 7.95126 15.4821 8.61076 15.7539C8.51226 15.5531 8.457 15.3275 8.457 15.0893C8.457 14.372 8.88184 14.1048 9.37558 13.7943H9.3756C9.76845 13.5474 10.2049 13.273 10.5058 12.7225C10.6627 12.4353 10.7518 12.1064 10.7518 11.7568C10.7518 11.5418 10.7181 11.3347 10.6557 11.1402Z" fill="#FF5E06"/>
</svg>
